# xmcd
#
# Track frame offsets:
# 150
# 19185
# 36609
# 54466
# 75828
# 93158
# 110195
# 127341
# 141674
# 157487
# 174579
# 189461
# 208275
#
# Disc length: 3020 seconds
#
#
# Revision: 0
# Processed by: cddbd v1.5.2PL0 Copyright (c) Steve Scherf et al.
# Submitted via: FreeRIP 2.951 
#
DISCID=c90bca0d
DTITLE=ANDRÉ E MATHEUS - 
DYEAR=2006
DGENRE=Country
TTITLE0=A GENTE SE AMA
TTITLE1=PO UM GOLE A MAIS
TTITLE2=E PRA SEMPRE TE AMAR
TTITLE3=DESEJO DE AMAR
TTITLE4=SISTEMA BRUTO
TTITLE5=CHORAM AS ROSAS
TTITLE6=TENTEI TE ESQUECER
TTITLE7=A GALERA DO CHAPÉU
TTITLE8=PORTA RETRATO
TTITLE9=NÃO TEM DIA NÃO TEM HORA
TTITLE10=TÁ NO MEU CORAÇÃO
TTITLE11=ACORDA PRA VIDA
TTITLE12=VAI DAR TUDO CERTO
EXTD=GRAVADO AO VIVO NA FACILPA
EXTT0=
EXTT1=
EXTT2=
EXTT3=
EXTT4=
EXTT5=
EXTT6=
EXTT7=
EXTT8=
EXTT9=
EXTT10=
EXTT11=
EXTT12=
PLAYORDER=
